<svg width="1335" height="16" viewBox="0 0 1335 16" fill="none" xmlns="http://www.w3.org/2000/svg">
<path d="M0.666667 8C0.666666 10.9455 3.05448 13.3333 6 13.3333C8.94552 13.3333 11.3333 10.9455 11.3333 8C11.3333 5.05448 8.94552 2.66667 6 2.66667C3.05448 2.66667 0.666667 5.05448 0.666667 8ZM1334.71 8.70722C1335.1 8.3167 1335.1 7.68353 1334.71 7.29301L1328.34 0.929048C1327.95 0.538523 1327.32 0.538523 1326.93 0.929048C1326.54 1.31957 1326.54 1.95274 1326.93 2.34326L1332.59 8.00012L1326.93 13.657C1326.54 14.0475 1326.54 14.6807 1326.93 15.0712C1327.32 15.4617 1327.95 15.4617 1328.34 15.0712L1334.71 8.70722ZM6 8L6 9L1334 9.00012L1334 8.00012L1334 7.00012L6 7L6 8Z" fill="#E0DBCF"/>
</svg>
