<!-- Generated by IcoMoon.io -->
<svg version="1.1" xmlns="http://www.w3.org/2000/svg" width="1388" height="32" viewBox="0 0 1388 32">
<path fill="#e0dbcf" d="M1.333 16c0 5.891 4.776 10.667 10.667 10.667s10.667-4.776 10.667-10.667c0-5.891-4.776-10.667-10.667-10.667s-10.667 4.776-10.667 10.667zM1385.416 17.414c0.78-0.781 0.78-2.047 0-2.828l-12.728-12.728c-0.784-0.781-2.048-0.781-2.832 0-0.78 0.781-0.78 2.047 0 2.828l11.316 11.314-11.316 11.314c-0.78 0.781-0.78 2.047 0 2.828 0.784 0.781 2.048 0.781 2.832 0l12.728-12.728zM12 16v2l1372 0v-4l-1372-0v2z"></path>
</svg>
