<!-- Generated by IcoMoon.io -->
<svg version="1.1" xmlns="http://www.w3.org/2000/svg" width="2670" height="32" viewBox="0 0 2670 32">
<path fill="#e0dbcf" d="M1.333 16c0 5.891 4.776 10.667 10.667 10.667s10.667-4.776 10.667-10.667c0-5.891-4.776-10.667-10.667-10.667s-10.667 4.776-10.667 10.667zM2669.42 17.414c0.78-0.781 0.78-2.047 0-2.828l-12.74-12.728c-0.78-0.781-2.040-0.781-2.82 0s-0.78 2.047 0 2.828l11.32 11.314-11.32 11.314c-0.78 0.781-0.78 2.047 0 2.828s2.040 0.781 2.82 0l12.74-12.728zM12 16v2l2656-4-2656 2z"></path>
</svg>
